<svg width="282" height="248" viewBox="0 0 282 248" fill="none" xmlns="http://www.w3.org/2000/svg">
<path opacity="0.3" d="M18.0169 216.306C18.1828 215.857 18.8172 215.857 18.9831 216.306L20.7136 220.982C20.7657 221.123 20.8769 221.234 21.0179 221.286L25.6943 223.017C26.1428 223.183 26.1428 223.817 25.6943 223.983L21.0179 225.714C20.8769 225.766 20.7657 225.877 20.7136 226.018L18.9831 230.694C18.8172 231.143 18.1828 231.143 18.0169 230.694L16.2864 226.018C16.2343 225.877 16.1231 225.766 15.9821 225.714L11.3057 223.983C10.8572 223.817 10.8572 223.183 11.3057 223.017L15.9821 221.286C16.1231 221.234 16.2343 221.123 16.2864 220.982L18.0169 216.306Z" fill="white"/>
<path opacity="0.2" d="M238.091 218.458C238.403 217.613 239.597 217.613 239.909 218.458L243.167 227.26C243.265 227.526 243.474 227.735 243.74 227.833L252.542 231.091C253.387 231.403 253.387 232.597 252.542 232.909L243.74 236.167C243.474 236.265 243.265 236.474 243.167 236.74L239.909 245.542C239.597 246.387 238.403 246.387 238.091 245.542L234.833 236.74C234.735 236.474 234.526 236.265 234.26 236.167L225.458 232.909C224.613 232.597 224.613 231.403 225.458 231.091L234.26 227.833C234.526 227.735 234.735 227.526 234.833 227.26L238.091 218.458Z" fill="white"/>
<path d="M238.131 85.9984C238.257 85.6555 238.743 85.6555 238.869 85.9984L240.193 89.5745C240.233 89.6824 240.318 89.7674 240.425 89.8073L244.002 91.1305C244.345 91.2575 244.345 91.7425 244.002 91.8695L240.425 93.1927C240.318 93.2326 240.233 93.3176 240.193 93.4255L238.869 97.0016C238.743 97.3445 238.257 97.3445 238.131 97.0016L236.807 93.4255C236.767 93.3176 236.682 93.2326 236.575 93.1927L232.998 91.8695C232.655 91.7425 232.655 91.2575 232.998 91.1305L236.575 89.8073C236.682 89.7674 236.767 89.6824 236.807 89.5745L238.131 85.9984Z" fill="white"/>
<path opacity="0.5" d="M7.54528 31.2289C7.70148 30.8067 8.29852 30.8067 8.45472 31.2289L10.0834 35.6302C10.1325 35.7629 10.2371 35.8675 10.3698 35.9166L14.7711 37.5453C15.1933 37.7015 15.1933 38.2985 14.7711 38.4547L10.3698 40.0834C10.2371 40.1325 10.1325 40.2371 10.0834 40.3698L8.45472 44.7711C8.29852 45.1933 7.70148 45.1933 7.54528 44.7711L5.91664 40.3698C5.86754 40.2371 5.7629 40.1325 5.63019 40.0834L1.22885 38.4547C0.806733 38.2985 0.806733 37.7015 1.22885 37.5453L5.63019 35.9166C5.7629 35.8675 5.86754 35.7629 5.91664 35.6302L7.54528 31.2289Z" fill="white"/>
<path opacity="0.5" d="M268.545 1.22885C268.701 0.806733 269.299 0.806733 269.455 1.22885L272.434 9.27973C272.483 9.41245 272.588 9.51708 272.72 9.56619L280.771 12.5453C281.193 12.7015 281.193 13.2985 280.771 13.4547L272.72 16.4338C272.588 16.4829 272.483 16.5876 272.434 16.7203L269.455 24.7711C269.299 25.1933 268.701 25.1933 268.545 24.7711L265.566 16.7203C265.517 16.5876 265.412 16.4829 265.28 16.4338L257.229 13.4547C256.807 13.2985 256.807 12.7015 257.229 12.5453L265.28 9.56619C265.412 9.51708 265.517 9.41245 265.566 9.27973L268.545 1.22885Z" fill="white"/>
</svg>
