<svg width="268" height="227" viewBox="0 0 268 227" fill="none" xmlns="http://www.w3.org/2000/svg">
<path opacity="0.3" d="M259.017 211.306C259.183 210.857 259.817 210.857 259.983 211.306L261.714 215.982C261.766 216.123 261.877 216.234 262.018 216.286L266.694 218.017C267.143 218.183 267.143 218.817 266.694 218.983L262.018 220.714C261.877 220.766 261.766 220.877 261.714 221.018L259.983 225.694C259.817 226.143 259.183 226.143 259.017 225.694L257.286 221.018C257.234 220.877 257.123 220.766 256.982 220.714L252.306 218.983C251.857 218.817 251.857 218.183 252.306 218.017L256.982 216.286C257.123 216.234 257.234 216.123 257.286 215.982L259.017 211.306Z" fill="white"/>
<path opacity="0.2" d="M15.0906 188.458C15.403 187.613 16.597 187.613 16.9094 188.458L20.1667 197.26C20.2649 197.526 20.4742 197.735 20.7396 197.833L29.5423 201.091C30.3865 201.403 30.3865 202.597 29.5423 202.909L20.7396 206.167C20.4742 206.265 20.2649 206.474 20.1667 206.74L16.9094 215.542C16.597 216.387 15.403 216.387 15.0906 215.542L11.8333 206.74C11.7351 206.474 11.5258 206.265 11.2604 206.167L2.4577 202.909C1.61347 202.597 1.61347 201.403 2.4577 201.091L11.2604 197.833C11.5258 197.735 11.7351 197.526 11.8333 197.26L15.0906 188.458Z" fill="white"/>
<path d="M42.1305 105.998C42.2575 105.655 42.7425 105.655 42.8695 105.998L44.1927 109.575C44.2326 109.682 44.3176 109.767 44.4255 109.807L48.0016 111.131C48.3445 111.257 48.3445 111.743 48.0016 111.869L44.4255 113.193C44.3176 113.233 44.2326 113.318 44.1927 113.425L42.8695 117.002C42.7425 117.345 42.2575 117.345 42.1305 117.002L40.8073 113.425C40.7674 113.318 40.6824 113.233 40.5745 113.193L36.9984 111.869C36.6555 111.743 36.6555 111.257 36.9984 111.131L40.5745 109.807C40.6824 109.767 40.7674 109.682 40.8073 109.575L42.1305 105.998Z" fill="white"/>
<path opacity="0.5" d="M208.545 1.22885C208.701 0.806733 209.299 0.806733 209.455 1.22885L211.083 5.63019C211.132 5.7629 211.237 5.86754 211.37 5.91664L215.771 7.54528C216.193 7.70148 216.193 8.29852 215.771 8.45472L211.37 10.0834C211.237 10.1325 211.132 10.2371 211.083 10.3698L209.455 14.7711C209.299 15.1933 208.701 15.1933 208.545 14.7711L206.917 10.3698C206.868 10.2371 206.763 10.1325 206.63 10.0834L202.229 8.45472C201.807 8.29852 201.807 7.70148 202.229 7.54528L206.63 5.91664C206.763 5.86754 206.868 5.7629 206.917 5.63019L208.545 1.22885Z" fill="white"/>
</svg>
