<svg width="268" height="372" viewBox="0 0 268 372" fill="none" xmlns="http://www.w3.org/2000/svg">
<path opacity="0.3" d="M259.017 356.306C259.183 355.857 259.817 355.857 259.983 356.306L261.714 360.982C261.766 361.123 261.877 361.234 262.018 361.286L266.694 363.017C267.143 363.183 267.143 363.817 266.694 363.983L262.018 365.714C261.877 365.766 261.766 365.877 261.714 366.018L259.983 370.694C259.817 371.143 259.183 371.143 259.017 370.694L257.286 366.018C257.234 365.877 257.123 365.766 256.982 365.714L252.306 363.983C251.857 363.817 251.857 363.183 252.306 363.017L256.982 361.286C257.123 361.234 257.234 361.123 257.286 360.982L259.017 356.306Z" fill="white"/>
<path opacity="0.2" d="M15.0906 329.458C15.403 328.613 16.597 328.613 16.9094 329.458L20.1667 338.26C20.2649 338.526 20.4742 338.735 20.7396 338.833L29.5423 342.091C30.3865 342.403 30.3865 343.597 29.5423 343.909L20.7396 347.167C20.4742 347.265 20.2649 347.474 20.1667 347.74L16.9094 356.542C16.597 357.387 15.403 357.387 15.0906 356.542L11.8333 347.74C11.7351 347.474 11.5258 347.265 11.2604 347.167L2.4577 343.909C1.61347 343.597 1.61347 342.403 2.4577 342.091L11.2604 338.833C11.5258 338.735 11.7351 338.526 11.8333 338.26L15.0906 329.458Z" fill="white"/>
<path d="M42.1305 105.998C42.2575 105.655 42.7425 105.655 42.8695 105.998L44.1927 109.575C44.2326 109.682 44.3176 109.767 44.4255 109.807L48.0016 111.131C48.3445 111.257 48.3445 111.743 48.0016 111.869L44.4255 113.193C44.3176 113.233 44.2326 113.318 44.1927 113.425L42.8695 117.002C42.7425 117.345 42.2575 117.345 42.1305 117.002L40.8073 113.425C40.7674 113.318 40.6824 113.233 40.5745 113.193L36.9984 111.869C36.6555 111.743 36.6555 111.257 36.9984 111.131L40.5745 109.807C40.6824 109.767 40.7674 109.682 40.8073 109.575L42.1305 105.998Z" fill="white"/>
<path opacity="0.5" d="M208.545 1.22885C208.701 0.806733 209.299 0.806733 209.455 1.22885L211.083 5.63019C211.132 5.7629 211.237 5.86754 211.37 5.91664L215.771 7.54528C216.193 7.70148 216.193 8.29852 215.771 8.45472L211.37 10.0834C211.237 10.1325 211.132 10.2371 211.083 10.3698L209.455 14.7711C209.299 15.1933 208.701 15.1933 208.545 14.7711L206.917 10.3698C206.868 10.2371 206.763 10.1325 206.63 10.0834L202.229 8.45472C201.807 8.29852 201.807 7.70148 202.229 7.54528L206.63 5.91664C206.763 5.86754 206.868 5.7629 206.917 5.63019L208.545 1.22885Z" fill="white"/>
</svg>
