<svg width="270" height="277" viewBox="0 0 270 277" fill="none" xmlns="http://www.w3.org/2000/svg">
<path opacity="0.5" d="M261.545 10.2289C261.701 9.80673 262.299 9.80673 262.455 10.2289L264.083 14.6302C264.132 14.7629 264.237 14.8675 264.37 14.9166L268.771 16.5453C269.193 16.7015 269.193 17.2985 268.771 17.4547L264.37 19.0834C264.237 19.1325 264.132 19.2371 264.083 19.3698L262.455 23.7711C262.299 24.1933 261.701 24.1933 261.545 23.7711L259.917 19.3698C259.868 19.2371 259.763 19.1325 259.63 19.0834L255.229 17.4547C254.807 17.2985 254.807 16.7015 255.229 16.5453L259.63 14.9166C259.763 14.8675 259.868 14.7629 259.917 14.6302L261.545 10.2289Z" fill="white"/>
<path d="M6.13054 127.998C6.25745 127.655 6.74255 127.655 6.86946 127.998L8.19273 131.575C8.23263 131.682 8.31765 131.767 8.42547 131.807L12.0016 133.131C12.3445 133.257 12.3445 133.743 12.0016 133.869L8.42547 135.193C8.31764 135.233 8.23263 135.318 8.19273 135.425L6.86946 139.002C6.74255 139.345 6.25745 139.345 6.13054 139.002L4.80727 135.425C4.76737 135.318 4.68236 135.233 4.57453 135.193L0.998442 133.869C0.655471 133.743 0.655471 133.257 0.998441 133.131L4.57453 131.807C4.68236 131.767 4.76737 131.682 4.80727 131.575L6.13054 127.998Z" fill="white"/>
<path opacity="0.5" d="M29.5453 1.22885C29.7015 0.806733 30.2985 0.806733 30.4547 1.22885L33.4338 9.27973C33.4829 9.41245 33.5876 9.51708 33.7203 9.56619L41.7711 12.5453C42.1933 12.7015 42.1933 13.2985 41.7711 13.4547L33.7203 16.4338C33.5876 16.4829 33.4829 16.5876 33.4338 16.7203L30.4547 24.7711C30.2985 25.1933 29.7015 25.1933 29.5453 24.7711L26.5662 16.7203C26.5171 16.5876 26.4124 16.4829 26.2797 16.4338L18.2289 13.4547C17.8067 13.2985 17.8067 12.7015 18.2289 12.5453L26.2797 9.56619C26.4124 9.51708 26.5171 9.41245 26.5662 9.27973L29.5453 1.22885Z" fill="white"/>
<path opacity="0.3" d="M240.017 261.306C240.183 260.857 240.817 260.857 240.983 261.306L242.714 265.982C242.766 266.123 242.877 266.234 243.018 266.286L247.694 268.017C248.143 268.183 248.143 268.817 247.694 268.983L243.018 270.714C242.877 270.766 242.766 270.877 242.714 271.018L240.983 275.694C240.817 276.143 240.183 276.143 240.017 275.694L238.286 271.018C238.234 270.877 238.123 270.766 237.982 270.714L233.306 268.983C232.857 268.817 232.857 268.183 233.306 268.017L237.982 266.286C238.123 266.234 238.234 266.123 238.286 265.982L240.017 261.306Z" fill="white"/>
</svg>
